cover



Plot: By tying thousands of balloon to his home, 78-year-old Carl Fredricksen sets out to fulfill his lifelong dream to see the wilds of South America. Right after lifting off, however, he learns he isn't alone on his journey, since Russell, a wilderness explorer 70 years his junior, has inadvertently become a stowaway on the trip.

Cast: Edward Asner ...
Carl Fredricksen (voice) (as Ed Asner)
Christopher Plummer Christopher Plummer ...
Charles Muntz (voice)
Jordan Nagai Jordan Nagai ...
Russell (voice)
Bob Peterson Bob Peterson ...
Dug / Alpha (voice)
Delroy Lindo Delroy Lindo ...
Beta (voice)
Jerome Ranft Jerome Ranft ...
Gamma (voice)
John Ratzenberger John Ratzenberger ...
Construction Foreman Tom (voice)
David Kaye David Kaye ...
Newsreel Announcer (voice)


screens

Format;Avi

File Size:1.6gb

Video: ID : 0
Format : MPEG-4 Visual
Format profile : Simple@L3
Format settings, BVOP : No
Format settings, QPel : No
Format settings, GMC : No warppoints
Format settings, Matrix : Default (H.263)
Codec ID : XVID
Codec ID/Hint : XviD
Duration : 1h 36mn
Bit rate : 1 996 Kbps
Width : 704 pixels
Height : 384 pixels
Display aspect ratio : 16:9
Frame rate : 23.976 fps
Color space : YUV
Chroma subsampling : 4:2:0
Bit depth : 8 bits
Scan type : Progressive
Bits/(Pixel*Frame) : 0.308
Stream size : 1.34 GiB (84%)
Writing library : XviD 1.2.1 (UTC 2008-12-04)

Audio: ID : 1
Format : AC-3
Format/Info : Audio Coding 3
Mode extension : CM (complete main)
Codec ID : 2000
Duration : 1h 36mn
Bit rate mode : Constant
Bit rate : 384 Kbps
Channel(s) : 2 channels
Channel positions : Front: L R
Sampling rate : 48.0 KHz
Bit depth : 16 bits
Stream size : 264 MiB (16%)
Alignment : Split accross interleaves
Interleave, duration : 42 ms (1.00 video frame)
Interleave, preload duration : 500 ms

Duration:1:36

Release Date:2010

Language:English
